<svg width="375" height="420" viewBox="0 0 375 420" fill="none" xmlns="http://www.w3.org/2000/svg">
<mask id="mask0_165_1115" style="mask-type:alpha" maskUnits="userSpaceOnUse" x="0" y="0" width="375" height="420">
<rect width="375" height="420" fill="#770E33"/>
</mask>
<g mask="url(#mask0_165_1115)">
<rect x="-115" y="-86.5651" width="545" height="670.565" fill="#FFD1AF"/>
<path opacity="0.3" d="M-0.881056 -34.7789C-13.9442 -22.5431 -27.2438 -10.0551 -36.5648 6.94178C-56.2232 42.723 -55.3425 92.2388 -52.1468 138.256C-49.2696 179.973 -44.7316 222.999 -28.5749 260.971C-21.4649 277.708 -12.2642 292.99 -3.11944 308.169C9.73915 329.591 22.6059 350.938 36.1666 371.669C44.2104 383.972 101.81 420.477 121.691 421.732C145.704 423.237 201.949 442.951 224.977 436.925C247.652 430.988 268.3 417.989 289.898 408.214C309.607 399.281 330.343 392.948 348.591 380.41C377.694 360.469 384.187 291.727 396.945 252.319C409.702 212.91 410.032 191.427 410.944 147.446C411.673 112.211 396.858 68.0558 382.126 36.3937C359.957 -11.2615 315.834 -33.2051 275.385 -49.7617C225.397 -70.2294 173.885 -88.5687 122.426 -90.3308C100.091 -91.1 73.4168 -91.0486 53.3996 -79.5794C34.0746 -68.5061 15.9713 -50.5628 -0.881056 -34.7789Z" fill="#FFF5F2"/>
<path opacity="0.3" d="M21.0434 276.864C33.1164 294.522 46.0111 311.436 59.6549 327.509C70.9023 340.752 83.7247 345.341 97.2876 354.768C116.974 368.43 139.133 374.345 159.774 385.342C179.003 395.584 197.349 410.412 217.515 414.836C230.012 417.58 242.42 416.123 254.381 413.725C268.831 410.812 300.04 394.247 313.302 381.085C326.564 367.923 330.824 331.573 345.436 303.819C354.691 286.245 370.071 258.068 373.795 237.226C377.848 214.548 373.697 189.57 366.462 166.201C341.754 86.4687 280.355 20.3964 212.003 -7.20972C193.225 -14.7875 173.504 -19.7474 154.918 -17.0195C134.903 -14.077 117.626 -2.48009 100.761 8.88455C80.4483 22.6559 12.6692 36.0784 -1.90157 67.9933C-16.4723 99.9081 -27.1836 147.737 -23.5174 181.324C-20.3997 209.68 3.09022 255.206 21.0434 276.864Z" fill="#FFF5F2"/>
<g opacity="0.8">
<path opacity="0.3" d="M117.195 57.2922C108.614 61.4772 100.111 66.2198 93.5192 73.6215C84.0981 84.1491 67.5239 94.771 61.6767 109.952C55.8294 125.132 42.2258 153.622 44.3143 190.194C46.4028 226.765 65.3281 256.033 69.3096 263.687C92.5905 308.433 134.967 339.165 177.354 347.268C219.742 355.37 267.291 368.785 285.937 346.688C309.586 318.684 319.116 279.927 323.124 243.407C327.133 206.887 320.606 174.544 300.739 128.437C294.943 114.977 287.926 101.78 278.3 91.4596C268.861 81.3215 257.438 74.4385 246.172 67.7046C225.321 55.223 203.056 42.2052 180.354 39.8108C157.944 37.4569 136.416 47.9 117.195 57.2922Z" fill="#FFF5F2"/>
</g>
<g opacity="0.7">
<path opacity="0.5" d="M272.23 157.548C267.15 127.58 247.738 102.415 226.795 84.6279C221.659 80.2622 216.295 76.1581 210.528 73.8219C203.492 70.9791 196.147 70.8924 189.143 71.8679C178.418 73.3598 168.203 77.2156 158.951 83.2649C146.536 91.3944 136.17 103.278 126.212 115.409C116.04 127.791 106.165 140.551 96.5867 153.689C92.0151 159.961 87.4366 166.458 84.9495 174.531C82.1629 183.546 82.18 193.929 82.8332 204.034C83.9051 221.435 87.0941 239.942 96.4329 254.156C101.236 261.464 107.378 267.178 113.434 272.803L146.845 303.772C161.338 317.206 178.147 331.469 194.566 328.072C205.024 325.905 213.015 316.849 220.52 308.145C238.869 286.781 251.472 266.372 260.368 236.432C267.776 211.483 277.159 186.652 272.23 157.548Z" fill="#F1C8D1"/>
</g>
<g opacity="0.8">
<path opacity="0.7" d="M236.374 189.117C233.962 173.955 238.562 154.954 230.875 141.461C223.187 127.967 211.665 116.581 199.118 112.888C183.544 108.31 158.947 111.388 154.28 147.074C149.614 182.759 116.068 177.602 114.701 198.056C113.335 218.509 118.522 232.856 126.356 244.387C134.19 255.918 144.684 268.384 170.036 271.337C195.388 274.291 236.538 255.66 236.374 189.117Z" fill="#F1C8D1"/>
</g>
<g opacity="0.3" clip-path="url(#clip0_165_1115)">
<path d="M167.932 220.118C167.013 211.5 163.256 202.747 155.633 198.216C151.694 195.811 147.482 192.646 144.732 189.038C132.093 172.17 136.521 162.39 141.212 143.599C142.647 137.228 143.574 130.663 141.731 124.204C144.929 130.203 144.789 137.487 143.811 144.076C142.565 152.638 139.742 161.141 140.557 169.847C141.187 176.221 144.499 181.925 147.958 187.259C150.394 190.783 155.699 193.44 159.882 196.126C167.725 201.166 167.913 211.121 167.957 220.119L167.932 220.118Z" fill="#770E33"/>
<path d="M206.837 211.526C209.753 204.151 208.565 197.646 210.054 194.242C211.827 190.181 216.923 184.746 219.556 177.799C220.505 175.382 221.11 172.844 221.355 170.26C221.666 166.85 220.999 163.422 219.432 160.377C218.251 158.079 215.662 155.329 212.561 152.954C208.352 149.738 203.191 147.238 199.356 147.462C196.061 147.605 192.809 148.271 189.723 149.434C183.599 151.862 180.096 155.755 177.54 161.866C176.21 165.031 176.712 168.361 174.808 171.657C174.188 172.722 172.271 174.096 171.747 175.144C171.222 176.192 171.729 180.765 171.365 183.049C170.235 183.582 168.088 179.677 168.088 179.677C168.088 179.677 164.666 174.023 163.199 174.063C161.731 174.103 164.16 176.832 163.823 178.028C162.363 175.901 158.815 173.488 158.154 174.482C157.492 175.476 161.484 177.409 161.561 179.501C160.693 178.678 159.772 177.911 158.804 177.208C157.797 176.504 155.81 175.657 155.381 176.663C155.018 177.516 158.965 179.168 159.817 181.128C159.729 181.091 159.637 181.063 159.542 181.045C158.395 180.474 157.189 180.027 155.946 179.713C154.871 179.477 154.286 179.801 154.353 180.456C154.42 181.11 156.75 181.789 158.712 183.185C161.736 185.349 164.443 189.762 166.562 192.541C161.297 194.121 157.754 203.756 155.946 206.795C152.126 213.154 146.505 209.023 145.11 206.959C143.715 204.894 143.448 201.978 143.087 199.494C142.725 197.011 142.45 193.998 140.508 192.467C137.861 190.384 134.874 190.384 132.12 194.277C129.366 198.169 133.34 202.212 135.505 206.795C138.058 212.191 136.519 215.643 141.139 224.93C145.443 233.572 154.295 237.278 155.692 237.805C159.727 239.271 163.962 240.117 168.251 240.315C171.602 240.51 179.618 239.53 187.314 235.663C195.641 231.463 203.928 218.904 206.837 211.526Z" fill="#770E33"/>
<path d="M183.276 174.293C181.521 173.415 182.888 171.917 183.619 171.277C184.837 170.212 186.703 172.1 186.908 172.922C187.114 173.744 185.469 175.389 183.276 174.293Z" fill="#FFE8E7"/>
</g>
<path opacity="0.06" d="M175 199.453C173 198.796 168.417 192.701 166.625 190.557C162.25 192.062 159 199.727 157 207.117C155.551 212.474 150.156 212.411 147.25 210.676C140.375 206.57 141.344 192.449 138.75 193.979C135.5 195.895 141.975 214.782 143.375 218.614C145.125 223.404 153.415 231.618 158.125 232.3C166.625 233.532 172.625 233.669 180.5 228.195C188.375 222.72 188.375 207.391 187.125 206.023C185.875 204.654 177.5 200.274 175 199.453Z" fill="#770E33"/>
<path opacity="0.1" d="M179.485 186.472C177.585 185.925 173.562 183.098 172.375 179.95C172.375 179.95 171.375 174.954 173.562 174.681C175.75 174.407 176.469 177.007 177.125 177.965C177.581 178.631 179.562 180.292 181.687 181.661C183.812 183.029 186.235 183.735 190.36 184.83C193.595 185.689 196.693 188.196 197.913 189.412C197.941 189.437 197.964 189.461 197.985 189.483C197.962 189.46 197.938 189.436 197.913 189.412C197.442 188.97 195.946 188.085 193.11 187.567C189.36 186.883 181.86 187.157 179.485 186.472Z" fill="#770E33"/>
</g>
<defs>
<clipPath id="clip0_165_1115">
<rect width="106.776" height="103.681" fill="white" transform="matrix(0.813239 0.58193 -0.581935 0.813235 152.689 109.093)"/>
</clipPath>
</defs>
</svg>
